<svg id="Layer_1" enable-background="new 0 0 509.151 509.151" height="512" viewBox="0 0 509.151 509.151" width="512" xmlns="http://www.w3.org/2000/svg"><g id="XMLID_409_"><path id="XMLID_472_" d="m492.223 344.864c-9.01-11.734-34.607-39.741-77.613-46.354-46.309-7.113-78.54 15.497-81.649 16.359v28.53c0 8.685-7.065 15.75-15.75 15.75h-2.635c-8.685 0-15.75-7.065-15.75-15.75-.006-9.601.013-19.728-.017-21.75h.017v-75h-30v32.627c-9.492-3.447-19.658-3.409-28.583-.456v-32.171h-30v75h.083v21.75c0 8.685-7.065 15.75-15.75 15.75s-15.75-7.065-15.75-15.75v-28.53l-8.136-4.186c-5.932-3.054-18.863-7.689-32.1-10.641-14.628-3.261-29.448-3.775-44.047-1.532-43.003 6.612-68.604 34.618-77.614 46.353l-15.282 19.902 24.764 4.039c34.709 5.66 64.925 29.674 77.068 65.085l4.737 13.813 13.935-4.364c4.477-1.403 20.361-5.311 36.798 3.242 8.15 4.242 14.716 10.585 19.514 18.854l5.505 9.486c8.984-1.818 12.576-3.269 18.856-3.269 20.187 0 36 16.472 36 37.5h30c0-23.825 22.084-41.81 45.647-36.602l10.709 2.37 5.505-9.486c4.799-8.268 11.364-14.612 19.515-18.854 16.438-8.554 32.32-4.643 36.798-3.242l13.936 4.364 4.737-13.813c12.151-35.444 42.397-59.431 77.067-65.084l24.764-4.039z"/><path id="XMLID_468_" d="m118.922 159.848c0-32.797-26.021-59.619-58.5-60.937-22.936 31.409-37.746 67.684-43.331 106.212 10.819 9.767 25.142 15.725 40.831 15.725 33.636 0 61-27.364 61-61z"/><circle id="XMLID_465_" cx="344.576" cy="149.151" r="15"/><path id="XMLID_411_" d="m145.117 270.762c12.335 2.751 25.765 7.083 35.126 11.255v-65.366h148.583v66.618c50.322-25.21 111.237-21.376 158.643 15.009 19.676-78.831-1.122-165.86-63.188-227.926-94.377-94.377-247.616-93.882-341.354 1.991 38.059 10.891 65.995 45.997 65.995 87.506 0 50.178-40.822 91-91 91-15.682 0-30.45-3.987-43.344-11.001-.017 19.354 2.227 38.89 7.104 58.43 36.519-28.029 81.122-36.949 123.435-27.516zm273.709-31.611h-30v-30h30zm-74.25-135c24.814 0 45 20.187 45 45s-20.186 45-45 45c-24.813 0-45-20.187-45-45s20.186-45 45-45zm-150.75 0h30v30h-30z"/></g></svg>