<svg id="Layer_1" enable-background="new 0 0 509.147 509.147" height="512" viewBox="0 0 509.147 509.147" width="512" xmlns="http://www.w3.org/2000/svg"><g><path d="m477.526 328.992c34.017-84.92 17.72-187.677-53.247-258.643-93.791-93.791-245.607-93.804-339.411 0-70.835 70.835-87.335 173.545-53.248 258.643-11.939 10.869-16.02 17.963-29.975 35.768l24.763 4.04c35.811 5.843 65.281 30.71 77.069 65.085l4.737 13.813 13.935-4.364c4.477-1.402 20.36-5.311 36.798 3.243 8.151 4.242 14.717 10.586 19.515 18.853l5.505 9.486c9.014-1.825 12.591-3.268 18.856-3.268 20.187 0 36 16.472 36 37.5h30c0-23.866 22.131-41.805 45.648-36.601l10.708 2.369 5.505-9.486c4.798-8.267 11.364-14.611 19.514-18.853 16.439-8.554 32.323-4.645 36.798-3.243l13.936 4.365 4.736-13.814c11.768-34.322 41.207-59.233 77.069-65.084l24.764-4.04c-13.486-17.21-18.035-24.901-29.975-35.769zm-358.606-169.147c0 38.304-35.221 67.569-73.347 59.741 4.061-41.784 20.42-80.014 45.399-111.03 17.255 11.097 27.948 30.251 27.948 51.289zm-74.103 90.062c55.299 7.972 104.103-35.097 104.103-90.062 0-29.549-14.145-56.605-37.286-73.483 37.514-34.914 87.772-56.308 142.94-56.308 115.794 0 210 94.205 210 210 0 24.564-4.142 48.365-12.318 71.033-35.479-18.985-76.873-18.056-111.162-.406l-8.135 4.188v28.529c0 8.685-7.065 15.75-15.75 15.75h-2.635c-8.685 0-15.75-7.065-15.75-15.75-.006-10.624.013-19.89-.017-21.75h.017v-75h-30v32.635c-9.622-3.498-19.775-3.378-28.584-.464v-32.171h-30v75h.084v21.75c0 8.685-7.065 15.75-15.75 15.75s-15.75-7.065-15.75-15.75v-28.53l-8.136-4.188c-5.932-3.053-18.863-7.688-32.101-10.64-28.005-6.244-56.694-2.333-81.696 11.047-7.078-19.623-11.115-40.098-12.074-61.18zm337.446 161.886c-28.501-3.487-55.14 8.245-71.779 29.984-21.598-1.346-42.461 7.74-56.285 24.529-13.317-16.79-33.797-25.884-55.535-24.529-16.637-21.737-43.279-33.473-71.779-29.984-13.798-29.782-38.408-53.275-69.444-65.413 9.991-7.813 23.853-15.484 41.658-18.222 17.533-2.696 33.087.155 49.725 5.947v9.291c0 25.227 20.523 45.75 45.75 45.75s45.75-20.523 45.75-45.75v-21.75c0-7.386 4.582-14.909 13.34-14.999 8.479-.027 15.16 7.423 15.16 15.64v21.11c0 25.227 20.523 45.75 45.75 45.75h2.635c25.227 0 45.75-20.523 45.75-45.75v-9.736c29.654-11.754 62.63-7.705 88.747 12.72-29.824 11.663-55.098 34.444-69.443 65.412z"/><path d="m344.574 194.148c24.813 0 45-20.187 45-45s-20.187-45-45-45-45 20.187-45 45 20.186 45 45 45zm0-60c8.271 0 15 6.729 15 15s-6.729 15-15 15-15-6.729-15-15c0-8.272 6.729-15 15-15z"/><path d="m193.824 104.147h30v30h-30z"/><path d="m388.824 224.148h30v30h-30z"/></g></svg>